<mxfile host="app.diagrams.net" modified="2021-08-12T17:25:04.722Z" agent="5.0 (Windows)" etag="YxHM6IauqNp1M6z2sGm2" version="14.9.6" type="github">
  <diagram id="B94MK6AZcTMCaZdwlap7" name="Page-1">
    <mxGraphModel dx="2249" dy="780" grid="1" gridSize="10" guides="1" tooltips="1" connect="1" arrows="1" fold="1" page="1" pageScale="1" pageWidth="827" pageHeight="1169" math="0" shadow="0">
      <root>
        <mxCell id="0" />
        <mxCell id="1" parent="0" />
        <mxCell id="oLLIC_oALKhIsvuhBStB-2" value="Backend" style="rounded=1;whiteSpace=wrap;html=1;fontFamily=Lucida Console;" parent="1" vertex="1">
          <mxGeometry x="-176" y="60" width="120" height="60" as="geometry" />
        </mxCell>
        <mxCell id="oLLIC_oALKhIsvuhBStB-16" style="edgeStyle=orthogonalEdgeStyle;rounded=0;orthogonalLoop=1;jettySize=auto;html=1;fontFamily=Lucida Console;" parent="1" source="oLLIC_oALKhIsvuhBStB-12" target="oLLIC_oALKhIsvuhBStB-15" edge="1">
          <mxGeometry relative="1" as="geometry" />
        </mxCell>
        <mxCell id="oLLIC_oALKhIsvuhBStB-12" value="&lt;div&gt;Encryption Key&lt;/div&gt;&lt;div&gt;(Used for encrypting the user password client wise)&lt;br&gt;&lt;/div&gt;" style="rounded=1;whiteSpace=wrap;html=1;fontFamily=Lucida Console;" parent="1" vertex="1">
          <mxGeometry x="-360" y="230" width="170" height="80" as="geometry" />
        </mxCell>
        <mxCell id="oLLIC_oALKhIsvuhBStB-13" value="DB" style="rounded=1;whiteSpace=wrap;html=1;fontFamily=Lucida Console;" parent="1" vertex="1">
          <mxGeometry x="-560" y="630" width="120" height="60" as="geometry" />
        </mxCell>
        <mxCell id="ufzCT7gyZ99gmsHbjv4e-23" style="edgeStyle=orthogonalEdgeStyle;rounded=0;orthogonalLoop=1;jettySize=auto;html=1;fontFamily=Lucida Console;" edge="1" parent="1" source="oLLIC_oALKhIsvuhBStB-15" target="ufzCT7gyZ99gmsHbjv4e-20">
          <mxGeometry relative="1" as="geometry" />
        </mxCell>
        <mxCell id="oLLIC_oALKhIsvuhBStB-15" value="Email" style="rounded=1;whiteSpace=wrap;html=1;fontFamily=Lucida Console;" parent="1" vertex="1">
          <mxGeometry x="-335" y="360" width="120" height="50" as="geometry" />
        </mxCell>
        <mxCell id="ufzCT7gyZ99gmsHbjv4e-2" style="edgeStyle=orthogonalEdgeStyle;rounded=0;orthogonalLoop=1;jettySize=auto;html=1;fontFamily=Lucida Console;" edge="1" parent="1" source="oLLIC_oALKhIsvuhBStB-17" target="ufzCT7gyZ99gmsHbjv4e-1">
          <mxGeometry relative="1" as="geometry" />
        </mxCell>
        <mxCell id="oLLIC_oALKhIsvuhBStB-17" value="Generate RSA Keypair" style="rounded=1;whiteSpace=wrap;html=1;fontFamily=Lucida Console;" parent="1" vertex="1">
          <mxGeometry x="-335" y="630" width="120" height="60" as="geometry" />
        </mxCell>
        <mxCell id="oLLIC_oALKhIsvuhBStB-20" value="" style="endArrow=classic;html=1;exitX=0;exitY=0.5;exitDx=0;exitDy=0;entryX=1;entryY=0.5;entryDx=0;entryDy=0;fontFamily=Lucida Console;" parent="1" source="oLLIC_oALKhIsvuhBStB-17" target="oLLIC_oALKhIsvuhBStB-13" edge="1">
          <mxGeometry relative="1" as="geometry">
            <mxPoint x="-420" y="540" as="sourcePoint" />
            <mxPoint x="-320" y="540" as="targetPoint" />
          </mxGeometry>
        </mxCell>
        <mxCell id="oLLIC_oALKhIsvuhBStB-21" value="&lt;div&gt;Store&lt;/div&gt;" style="edgeLabel;resizable=0;html=1;align=center;verticalAlign=middle;fontFamily=Lucida Console;" parent="oLLIC_oALKhIsvuhBStB-20" connectable="0" vertex="1">
          <mxGeometry relative="1" as="geometry" />
        </mxCell>
        <mxCell id="ufzCT7gyZ99gmsHbjv4e-1" value="Send public key" style="rounded=1;whiteSpace=wrap;html=1;fontFamily=Lucida Console;" vertex="1" parent="1">
          <mxGeometry x="-335" y="770" width="120" height="60" as="geometry" />
        </mxCell>
        <mxCell id="ufzCT7gyZ99gmsHbjv4e-4" value="1. Step" style="text;html=1;strokeColor=none;fillColor=none;align=center;verticalAlign=middle;whiteSpace=wrap;rounded=0;fontFamily=Lucida Console;" vertex="1" parent="1">
          <mxGeometry x="-315" y="200" width="80" height="20" as="geometry" />
        </mxCell>
        <mxCell id="ufzCT7gyZ99gmsHbjv4e-9" style="edgeStyle=orthogonalEdgeStyle;rounded=0;orthogonalLoop=1;jettySize=auto;html=1;entryX=0.5;entryY=0;entryDx=0;entryDy=0;fontFamily=Lucida Console;" edge="1" parent="1" source="ufzCT7gyZ99gmsHbjv4e-6" target="ufzCT7gyZ99gmsHbjv4e-7">
          <mxGeometry relative="1" as="geometry" />
        </mxCell>
        <mxCell id="ufzCT7gyZ99gmsHbjv4e-10" style="edgeStyle=orthogonalEdgeStyle;rounded=0;orthogonalLoop=1;jettySize=auto;html=1;entryX=0.594;entryY=-0.028;entryDx=0;entryDy=0;entryPerimeter=0;fontFamily=Lucida Console;" edge="1" parent="1" source="ufzCT7gyZ99gmsHbjv4e-6" target="ufzCT7gyZ99gmsHbjv4e-8">
          <mxGeometry relative="1" as="geometry" />
        </mxCell>
        <mxCell id="ufzCT7gyZ99gmsHbjv4e-6" value="Registering" style="rounded=1;whiteSpace=wrap;html=1;fontFamily=Lucida Console;" vertex="1" parent="1">
          <mxGeometry x="260" y="230" width="170" height="80" as="geometry" />
        </mxCell>
        <mxCell id="ufzCT7gyZ99gmsHbjv4e-17" value="Try to decrypt" style="edgeStyle=orthogonalEdgeStyle;rounded=0;orthogonalLoop=1;jettySize=auto;html=1;entryX=0.25;entryY=0;entryDx=0;entryDy=0;fontFamily=Lucida Console;" edge="1" parent="1" source="ufzCT7gyZ99gmsHbjv4e-7" target="ufzCT7gyZ99gmsHbjv4e-15">
          <mxGeometry relative="1" as="geometry">
            <Array as="points">
              <mxPoint x="220" y="520" />
              <mxPoint x="330" y="520" />
            </Array>
          </mxGeometry>
        </mxCell>
        <mxCell id="ufzCT7gyZ99gmsHbjv4e-7" value="Password encrypted by public key" style="rounded=1;whiteSpace=wrap;html=1;fontFamily=Lucida Console;" vertex="1" parent="1">
          <mxGeometry x="160" y="355" width="120" height="65" as="geometry" />
        </mxCell>
        <mxCell id="ufzCT7gyZ99gmsHbjv4e-42" style="edgeStyle=orthogonalEdgeStyle;rounded=0;orthogonalLoop=1;jettySize=auto;html=1;entryX=1;entryY=0;entryDx=0;entryDy=52.5;entryPerimeter=0;fontFamily=Lucida Console;" edge="1" parent="1" source="ufzCT7gyZ99gmsHbjv4e-8" target="ufzCT7gyZ99gmsHbjv4e-37">
          <mxGeometry relative="1" as="geometry">
            <Array as="points">
              <mxPoint x="600" y="385" />
              <mxPoint x="600" y="1083" />
            </Array>
          </mxGeometry>
        </mxCell>
        <mxCell id="ufzCT7gyZ99gmsHbjv4e-8" value="Email" style="rounded=1;whiteSpace=wrap;html=1;fontFamily=Lucida Console;" vertex="1" parent="1">
          <mxGeometry x="420" y="355" width="120" height="60" as="geometry" />
        </mxCell>
        <mxCell id="ufzCT7gyZ99gmsHbjv4e-16" value="Private Key" style="edgeStyle=orthogonalEdgeStyle;rounded=0;orthogonalLoop=1;jettySize=auto;html=1;fontFamily=Lucida Console;entryX=0.75;entryY=0;entryDx=0;entryDy=0;" edge="1" parent="1" source="ufzCT7gyZ99gmsHbjv4e-12" target="ufzCT7gyZ99gmsHbjv4e-15">
          <mxGeometry relative="1" as="geometry" />
        </mxCell>
        <mxCell id="ufzCT7gyZ99gmsHbjv4e-12" value="DB" style="shape=cylinder3;whiteSpace=wrap;html=1;boundedLbl=1;backgroundOutline=1;size=15;fontFamily=Lucida Console;" vertex="1" parent="1">
          <mxGeometry x="450" y="480" width="60" height="80" as="geometry" />
        </mxCell>
        <mxCell id="ufzCT7gyZ99gmsHbjv4e-14" value="Get data" style="endArrow=classic;html=1;exitX=0.5;exitY=1;exitDx=0;exitDy=0;entryX=0.5;entryY=0;entryDx=0;entryDy=0;entryPerimeter=0;fontFamily=Lucida Console;" edge="1" parent="1" source="ufzCT7gyZ99gmsHbjv4e-8" target="ufzCT7gyZ99gmsHbjv4e-12">
          <mxGeometry width="50" height="50" relative="1" as="geometry">
            <mxPoint x="460" y="520" as="sourcePoint" />
            <mxPoint x="510" y="470" as="targetPoint" />
          </mxGeometry>
        </mxCell>
        <mxCell id="ufzCT7gyZ99gmsHbjv4e-27" style="edgeStyle=orthogonalEdgeStyle;rounded=0;orthogonalLoop=1;jettySize=auto;html=1;entryX=0.5;entryY=0;entryDx=0;entryDy=0;fontFamily=Lucida Console;" edge="1" parent="1" source="ufzCT7gyZ99gmsHbjv4e-15" target="ufzCT7gyZ99gmsHbjv4e-18">
          <mxGeometry relative="1" as="geometry" />
        </mxCell>
        <mxCell id="ufzCT7gyZ99gmsHbjv4e-29" style="edgeStyle=orthogonalEdgeStyle;rounded=0;orthogonalLoop=1;jettySize=auto;html=1;fontFamily=Lucida Console;" edge="1" parent="1" source="ufzCT7gyZ99gmsHbjv4e-15" target="ufzCT7gyZ99gmsHbjv4e-28">
          <mxGeometry relative="1" as="geometry">
            <Array as="points">
              <mxPoint x="360" y="740" />
              <mxPoint x="450" y="740" />
            </Array>
          </mxGeometry>
        </mxCell>
        <mxCell id="ufzCT7gyZ99gmsHbjv4e-40" style="edgeStyle=orthogonalEdgeStyle;rounded=0;orthogonalLoop=1;jettySize=auto;html=1;entryX=0.5;entryY=0;entryDx=0;entryDy=0;fontFamily=Lucida Console;" edge="1" parent="1" source="ufzCT7gyZ99gmsHbjv4e-15" target="ufzCT7gyZ99gmsHbjv4e-39">
          <mxGeometry relative="1" as="geometry" />
        </mxCell>
        <mxCell id="ufzCT7gyZ99gmsHbjv4e-15" value="Decrypted password" style="rounded=1;whiteSpace=wrap;html=1;fontFamily=Lucida Console;" vertex="1" parent="1">
          <mxGeometry x="300" y="650" width="120" height="60" as="geometry" />
        </mxCell>
        <mxCell id="ufzCT7gyZ99gmsHbjv4e-36" style="edgeStyle=orthogonalEdgeStyle;rounded=0;orthogonalLoop=1;jettySize=auto;html=1;entryX=0.5;entryY=0;entryDx=0;entryDy=0;fontFamily=Lucida Console;" edge="1" parent="1" source="ufzCT7gyZ99gmsHbjv4e-18" target="ufzCT7gyZ99gmsHbjv4e-30">
          <mxGeometry relative="1" as="geometry">
            <Array as="points">
              <mxPoint x="250" y="930" />
            </Array>
          </mxGeometry>
        </mxCell>
        <mxCell id="ufzCT7gyZ99gmsHbjv4e-18" value="Generate 2FA" style="rounded=1;whiteSpace=wrap;html=1;fontFamily=Lucida Console;" vertex="1" parent="1">
          <mxGeometry x="190" y="770" width="120" height="60" as="geometry" />
        </mxCell>
        <mxCell id="ufzCT7gyZ99gmsHbjv4e-24" style="edgeStyle=orthogonalEdgeStyle;rounded=0;orthogonalLoop=1;jettySize=auto;html=1;fontFamily=Lucida Console;" edge="1" parent="1" source="ufzCT7gyZ99gmsHbjv4e-20" target="oLLIC_oALKhIsvuhBStB-17">
          <mxGeometry relative="1" as="geometry" />
        </mxCell>
        <mxCell id="ufzCT7gyZ99gmsHbjv4e-26" style="edgeStyle=orthogonalEdgeStyle;rounded=0;orthogonalLoop=1;jettySize=auto;html=1;fontFamily=Lucida Console;" edge="1" parent="1" source="ufzCT7gyZ99gmsHbjv4e-20" target="ufzCT7gyZ99gmsHbjv4e-25">
          <mxGeometry relative="1" as="geometry" />
        </mxCell>
        <mxCell id="ufzCT7gyZ99gmsHbjv4e-20" value="Check if request has been made from another ip" style="rounded=1;whiteSpace=wrap;html=1;fontFamily=Lucida Console;" vertex="1" parent="1">
          <mxGeometry x="-335" y="480" width="120" height="60" as="geometry" />
        </mxCell>
        <mxCell id="ufzCT7gyZ99gmsHbjv4e-25" value="If yes abort" style="rounded=1;whiteSpace=wrap;html=1;fontFamily=Lucida Console;" vertex="1" parent="1">
          <mxGeometry x="-520" y="480" width="120" height="60" as="geometry" />
        </mxCell>
        <mxCell id="ufzCT7gyZ99gmsHbjv4e-46" style="edgeStyle=orthogonalEdgeStyle;rounded=0;orthogonalLoop=1;jettySize=auto;html=1;entryX=0.5;entryY=0;entryDx=0;entryDy=0;entryPerimeter=0;fontFamily=Lucida Console;" edge="1" parent="1" source="ufzCT7gyZ99gmsHbjv4e-28" target="ufzCT7gyZ99gmsHbjv4e-37">
          <mxGeometry relative="1" as="geometry">
            <Array as="points">
              <mxPoint x="460" y="920" />
              <mxPoint x="460" y="920" />
            </Array>
          </mxGeometry>
        </mxCell>
        <mxCell id="ufzCT7gyZ99gmsHbjv4e-28" value="Generate RSA Keypair for Communication" style="rounded=1;whiteSpace=wrap;html=1;fontFamily=Lucida Console;" vertex="1" parent="1">
          <mxGeometry x="390" y="920" width="120" height="60" as="geometry" />
        </mxCell>
        <mxCell id="ufzCT7gyZ99gmsHbjv4e-38" style="edgeStyle=orthogonalEdgeStyle;rounded=0;orthogonalLoop=1;jettySize=auto;html=1;entryX=0;entryY=0.5;entryDx=0;entryDy=0;entryPerimeter=0;fontFamily=Lucida Console;" edge="1" parent="1" source="ufzCT7gyZ99gmsHbjv4e-30" target="ufzCT7gyZ99gmsHbjv4e-37">
          <mxGeometry relative="1" as="geometry">
            <Array as="points">
              <mxPoint x="250" y="1070" />
            </Array>
          </mxGeometry>
        </mxCell>
        <mxCell id="ufzCT7gyZ99gmsHbjv4e-30" value="Encrypt using aes-password" style="rounded=1;whiteSpace=wrap;html=1;fontFamily=Lucida Console;" vertex="1" parent="1">
          <mxGeometry x="190" y="930" width="120" height="60" as="geometry" />
        </mxCell>
        <mxCell id="ufzCT7gyZ99gmsHbjv4e-37" value="DB" style="shape=cylinder3;whiteSpace=wrap;html=1;boundedLbl=1;backgroundOutline=1;size=15;fontFamily=Lucida Console;" vertex="1" parent="1">
          <mxGeometry x="430" y="1030" width="60" height="80" as="geometry" />
        </mxCell>
        <mxCell id="ufzCT7gyZ99gmsHbjv4e-41" style="edgeStyle=orthogonalEdgeStyle;rounded=0;orthogonalLoop=1;jettySize=auto;html=1;entryX=1;entryY=0;entryDx=0;entryDy=52.5;entryPerimeter=0;fontFamily=Lucida Console;" edge="1" parent="1" source="ufzCT7gyZ99gmsHbjv4e-39" target="ufzCT7gyZ99gmsHbjv4e-37">
          <mxGeometry relative="1" as="geometry">
            <Array as="points">
              <mxPoint x="700" y="1083" />
            </Array>
          </mxGeometry>
        </mxCell>
        <mxCell id="ufzCT7gyZ99gmsHbjv4e-39" value="Hash password using BCrypt" style="rounded=1;whiteSpace=wrap;html=1;fontFamily=Lucida Console;" vertex="1" parent="1">
          <mxGeometry x="630" y="770" width="120" height="60" as="geometry" />
        </mxCell>
        <mxCell id="ufzCT7gyZ99gmsHbjv4e-44" value="Verifying 2FA" style="rounded=1;whiteSpace=wrap;html=1;fontFamily=Lucida Console;" vertex="1" parent="1">
          <mxGeometry x="1650" y="250" width="170" height="80" as="geometry" />
        </mxCell>
        <mxCell id="ufzCT7gyZ99gmsHbjv4e-50" style="edgeStyle=orthogonalEdgeStyle;rounded=0;orthogonalLoop=1;jettySize=auto;html=1;entryX=0.5;entryY=0;entryDx=0;entryDy=0;fontFamily=Lucida Console;" edge="1" parent="1" source="ufzCT7gyZ99gmsHbjv4e-45" target="ufzCT7gyZ99gmsHbjv4e-49">
          <mxGeometry relative="1" as="geometry" />
        </mxCell>
        <mxCell id="ufzCT7gyZ99gmsHbjv4e-45" value="Encrypted Password using User Public Key" style="rounded=1;whiteSpace=wrap;html=1;fontFamily=Lucida Console;" vertex="1" parent="1">
          <mxGeometry x="1470" y="380" width="120" height="60" as="geometry" />
        </mxCell>
        <mxCell id="ufzCT7gyZ99gmsHbjv4e-55" style="edgeStyle=orthogonalEdgeStyle;rounded=0;orthogonalLoop=1;jettySize=auto;html=1;fontFamily=Lucida Console;" edge="1" parent="1" source="ufzCT7gyZ99gmsHbjv4e-49" target="ufzCT7gyZ99gmsHbjv4e-54">
          <mxGeometry relative="1" as="geometry" />
        </mxCell>
        <mxCell id="ufzCT7gyZ99gmsHbjv4e-49" value="Check if password matches" style="rounded=1;whiteSpace=wrap;html=1;fontFamily=Lucida Console;" vertex="1" parent="1">
          <mxGeometry x="1470" y="520" width="120" height="60" as="geometry" />
        </mxCell>
        <mxCell id="ufzCT7gyZ99gmsHbjv4e-68" style="edgeStyle=orthogonalEdgeStyle;rounded=0;orthogonalLoop=1;jettySize=auto;html=1;entryX=0.5;entryY=0;entryDx=0;entryDy=0;fontFamily=Lucida Console;" edge="1" parent="1" source="ufzCT7gyZ99gmsHbjv4e-54" target="ufzCT7gyZ99gmsHbjv4e-63">
          <mxGeometry relative="1" as="geometry" />
        </mxCell>
        <mxCell id="ufzCT7gyZ99gmsHbjv4e-54" value="Decrypted Password" style="rounded=1;whiteSpace=wrap;html=1;fontFamily=Lucida Console;" vertex="1" parent="1">
          <mxGeometry x="1470" y="650" width="120" height="60" as="geometry" />
        </mxCell>
        <mxCell id="ufzCT7gyZ99gmsHbjv4e-58" value="Hashed PW" style="edgeStyle=orthogonalEdgeStyle;rounded=0;orthogonalLoop=1;jettySize=auto;html=1;entryX=0;entryY=0.5;entryDx=0;entryDy=0;fontFamily=Lucida Console;" edge="1" parent="1" source="ufzCT7gyZ99gmsHbjv4e-57" target="ufzCT7gyZ99gmsHbjv4e-49">
          <mxGeometry relative="1" as="geometry" />
        </mxCell>
        <mxCell id="ufzCT7gyZ99gmsHbjv4e-57" value="DB" style="shape=cylinder3;whiteSpace=wrap;html=1;boundedLbl=1;backgroundOutline=1;size=15;fontFamily=Lucida Console;" vertex="1" parent="1">
          <mxGeometry x="1290" y="510" width="60" height="80" as="geometry" />
        </mxCell>
        <mxCell id="ufzCT7gyZ99gmsHbjv4e-60" value="Private Key" style="edgeStyle=orthogonalEdgeStyle;rounded=0;orthogonalLoop=1;jettySize=auto;html=1;entryX=0;entryY=0.5;entryDx=0;entryDy=0;fontFamily=Lucida Console;" edge="1" parent="1" source="ufzCT7gyZ99gmsHbjv4e-59" target="ufzCT7gyZ99gmsHbjv4e-54">
          <mxGeometry relative="1" as="geometry" />
        </mxCell>
        <mxCell id="ufzCT7gyZ99gmsHbjv4e-65" style="edgeStyle=orthogonalEdgeStyle;rounded=0;orthogonalLoop=1;jettySize=auto;html=1;fontFamily=Lucida Console;" edge="1" parent="1" source="ufzCT7gyZ99gmsHbjv4e-59" target="ufzCT7gyZ99gmsHbjv4e-64">
          <mxGeometry relative="1" as="geometry" />
        </mxCell>
        <mxCell id="ufzCT7gyZ99gmsHbjv4e-59" value="DB" style="shape=cylinder3;whiteSpace=wrap;html=1;boundedLbl=1;backgroundOutline=1;size=15;fontFamily=Lucida Console;" vertex="1" parent="1">
          <mxGeometry x="1290" y="690" width="60" height="80" as="geometry" />
        </mxCell>
        <mxCell id="ufzCT7gyZ99gmsHbjv4e-71" style="edgeStyle=orthogonalEdgeStyle;rounded=0;orthogonalLoop=1;jettySize=auto;html=1;entryX=0.5;entryY=0;entryDx=0;entryDy=0;fontFamily=Lucida Console;" edge="1" parent="1" source="ufzCT7gyZ99gmsHbjv4e-63" target="ufzCT7gyZ99gmsHbjv4e-69">
          <mxGeometry relative="1" as="geometry" />
        </mxCell>
        <mxCell id="ufzCT7gyZ99gmsHbjv4e-63" value="2FA Secret" style="rounded=1;whiteSpace=wrap;html=1;fontFamily=Lucida Console;" vertex="1" parent="1">
          <mxGeometry x="1470" y="860" width="120" height="60" as="geometry" />
        </mxCell>
        <mxCell id="ufzCT7gyZ99gmsHbjv4e-67" style="edgeStyle=orthogonalEdgeStyle;rounded=0;orthogonalLoop=1;jettySize=auto;html=1;entryX=0;entryY=0.5;entryDx=0;entryDy=0;fontFamily=Lucida Console;" edge="1" parent="1" source="ufzCT7gyZ99gmsHbjv4e-64" target="ufzCT7gyZ99gmsHbjv4e-63">
          <mxGeometry relative="1" as="geometry" />
        </mxCell>
        <mxCell id="ufzCT7gyZ99gmsHbjv4e-64" value="Encrypted 2FA" style="rounded=1;whiteSpace=wrap;html=1;fontFamily=Lucida Console;" vertex="1" parent="1">
          <mxGeometry x="1260" y="860" width="120" height="60" as="geometry" />
        </mxCell>
        <mxCell id="ufzCT7gyZ99gmsHbjv4e-76" style="edgeStyle=orthogonalEdgeStyle;rounded=0;orthogonalLoop=1;jettySize=auto;html=1;fontFamily=Lucida Console;" edge="1" parent="1" source="ufzCT7gyZ99gmsHbjv4e-69" target="ufzCT7gyZ99gmsHbjv4e-75">
          <mxGeometry relative="1" as="geometry" />
        </mxCell>
        <mxCell id="ufzCT7gyZ99gmsHbjv4e-69" value="Get OTP" style="rounded=1;whiteSpace=wrap;html=1;fontFamily=Lucida Console;" vertex="1" parent="1">
          <mxGeometry x="1470" y="990" width="120" height="60" as="geometry" />
        </mxCell>
        <mxCell id="ufzCT7gyZ99gmsHbjv4e-81" style="edgeStyle=orthogonalEdgeStyle;rounded=0;orthogonalLoop=1;jettySize=auto;html=1;entryX=0.5;entryY=0;entryDx=0;entryDy=0;fontFamily=Lucida Console;" edge="1" parent="1" source="ufzCT7gyZ99gmsHbjv4e-75" target="ufzCT7gyZ99gmsHbjv4e-80">
          <mxGeometry relative="1" as="geometry" />
        </mxCell>
        <mxCell id="ufzCT7gyZ99gmsHbjv4e-83" style="edgeStyle=orthogonalEdgeStyle;rounded=0;orthogonalLoop=1;jettySize=auto;html=1;fontFamily=Lucida Console;" edge="1" parent="1" source="ufzCT7gyZ99gmsHbjv4e-75" target="ufzCT7gyZ99gmsHbjv4e-82">
          <mxGeometry relative="1" as="geometry" />
        </mxCell>
        <mxCell id="ufzCT7gyZ99gmsHbjv4e-75" value="Matches" style="rounded=1;whiteSpace=wrap;html=1;fontFamily=Lucida Console;" vertex="1" parent="1">
          <mxGeometry x="1470" y="1100" width="120" height="60" as="geometry" />
        </mxCell>
        <mxCell id="ufzCT7gyZ99gmsHbjv4e-79" style="edgeStyle=orthogonalEdgeStyle;rounded=0;orthogonalLoop=1;jettySize=auto;html=1;fontFamily=Lucida Console;entryX=1;entryY=0.5;entryDx=0;entryDy=0;" edge="1" parent="1" source="ufzCT7gyZ99gmsHbjv4e-77" target="ufzCT7gyZ99gmsHbjv4e-75">
          <mxGeometry relative="1" as="geometry">
            <mxPoint x="1750" y="1140" as="targetPoint" />
            <Array as="points">
              <mxPoint x="1750" y="1130" />
            </Array>
          </mxGeometry>
        </mxCell>
        <mxCell id="ufzCT7gyZ99gmsHbjv4e-77" value="Given OTP" style="rounded=1;whiteSpace=wrap;html=1;fontFamily=Lucida Console;" vertex="1" parent="1">
          <mxGeometry x="1690" y="380" width="120" height="60" as="geometry" />
        </mxCell>
        <mxCell id="ufzCT7gyZ99gmsHbjv4e-85" value="Update User" style="edgeStyle=orthogonalEdgeStyle;rounded=0;orthogonalLoop=1;jettySize=auto;html=1;entryX=0.5;entryY=0;entryDx=0;entryDy=0;fontFamily=Lucida Console;entryPerimeter=0;" edge="1" parent="1" source="ufzCT7gyZ99gmsHbjv4e-80" target="ufzCT7gyZ99gmsHbjv4e-86">
          <mxGeometry relative="1" as="geometry">
            <mxPoint x="1530" y="1330" as="targetPoint" />
          </mxGeometry>
        </mxCell>
        <mxCell id="ufzCT7gyZ99gmsHbjv4e-80" value="Yes" style="rounded=1;whiteSpace=wrap;html=1;fontFamily=Lucida Console;" vertex="1" parent="1">
          <mxGeometry x="1470" y="1210" width="120" height="60" as="geometry" />
        </mxCell>
        <mxCell id="ufzCT7gyZ99gmsHbjv4e-82" value="No, decline" style="rounded=1;whiteSpace=wrap;html=1;fontFamily=Lucida Console;" vertex="1" parent="1">
          <mxGeometry x="1300" y="1100" width="120" height="60" as="geometry" />
        </mxCell>
        <mxCell id="ufzCT7gyZ99gmsHbjv4e-86" value="DB" style="shape=cylinder3;whiteSpace=wrap;html=1;boundedLbl=1;backgroundOutline=1;size=15;fontFamily=Lucida Console;" vertex="1" parent="1">
          <mxGeometry x="1500" y="1370" width="60" height="80" as="geometry" />
        </mxCell>
        <mxCell id="ufzCT7gyZ99gmsHbjv4e-91" style="edgeStyle=orthogonalEdgeStyle;rounded=0;orthogonalLoop=1;jettySize=auto;html=1;entryX=0.5;entryY=0;entryDx=0;entryDy=0;fontFamily=Lucida Console;" edge="1" parent="1" source="ufzCT7gyZ99gmsHbjv4e-88" target="ufzCT7gyZ99gmsHbjv4e-89">
          <mxGeometry relative="1" as="geometry" />
        </mxCell>
        <mxCell id="ufzCT7gyZ99gmsHbjv4e-110" style="edgeStyle=orthogonalEdgeStyle;rounded=0;orthogonalLoop=1;jettySize=auto;html=1;fontFamily=Lucida Console;" edge="1" parent="1" source="ufzCT7gyZ99gmsHbjv4e-88" target="ufzCT7gyZ99gmsHbjv4e-109">
          <mxGeometry relative="1" as="geometry" />
        </mxCell>
        <mxCell id="ufzCT7gyZ99gmsHbjv4e-88" value="Logging in" style="rounded=1;whiteSpace=wrap;html=1;fontFamily=Lucida Console;" vertex="1" parent="1">
          <mxGeometry x="2550" y="250" width="170" height="80" as="geometry" />
        </mxCell>
        <mxCell id="ufzCT7gyZ99gmsHbjv4e-92" style="edgeStyle=orthogonalEdgeStyle;rounded=0;orthogonalLoop=1;jettySize=auto;html=1;entryX=1;entryY=0.5;entryDx=0;entryDy=0;fontFamily=Lucida Console;" edge="1" parent="1" source="ufzCT7gyZ99gmsHbjv4e-89" target="ufzCT7gyZ99gmsHbjv4e-90">
          <mxGeometry relative="1" as="geometry" />
        </mxCell>
        <mxCell id="ufzCT7gyZ99gmsHbjv4e-89" value="&lt;div&gt;Email&lt;/div&gt;" style="rounded=1;whiteSpace=wrap;html=1;fontFamily=Lucida Console;" vertex="1" parent="1">
          <mxGeometry x="2575" y="390" width="120" height="60" as="geometry" />
        </mxCell>
        <mxCell id="ufzCT7gyZ99gmsHbjv4e-95" style="edgeStyle=orthogonalEdgeStyle;rounded=0;orthogonalLoop=1;jettySize=auto;html=1;entryX=0.5;entryY=0;entryDx=0;entryDy=0;fontFamily=Lucida Console;" edge="1" parent="1" source="ufzCT7gyZ99gmsHbjv4e-90" target="ufzCT7gyZ99gmsHbjv4e-93">
          <mxGeometry relative="1" as="geometry" />
        </mxCell>
        <mxCell id="ufzCT7gyZ99gmsHbjv4e-90" value="Encrypted password using EncryptionKey Request" style="rounded=1;whiteSpace=wrap;html=1;fontFamily=Lucida Console;" vertex="1" parent="1">
          <mxGeometry x="2300" y="390" width="220" height="60" as="geometry" />
        </mxCell>
        <mxCell id="ufzCT7gyZ99gmsHbjv4e-99" style="edgeStyle=orthogonalEdgeStyle;rounded=0;orthogonalLoop=1;jettySize=auto;html=1;fontFamily=Lucida Console;" edge="1" parent="1" source="ufzCT7gyZ99gmsHbjv4e-93" target="ufzCT7gyZ99gmsHbjv4e-98">
          <mxGeometry relative="1" as="geometry" />
        </mxCell>
        <mxCell id="ufzCT7gyZ99gmsHbjv4e-106" style="edgeStyle=orthogonalEdgeStyle;rounded=0;orthogonalLoop=1;jettySize=auto;html=1;entryX=1;entryY=0.5;entryDx=0;entryDy=0;fontFamily=Lucida Console;" edge="1" parent="1" source="ufzCT7gyZ99gmsHbjv4e-93" target="ufzCT7gyZ99gmsHbjv4e-103">
          <mxGeometry relative="1" as="geometry">
            <Array as="points">
              <mxPoint x="2530" y="530" />
              <mxPoint x="2530" y="810" />
            </Array>
          </mxGeometry>
        </mxCell>
        <mxCell id="ufzCT7gyZ99gmsHbjv4e-93" value="Decrypted Password" style="rounded=1;whiteSpace=wrap;html=1;fontFamily=Lucida Console;" vertex="1" parent="1">
          <mxGeometry x="2350" y="500" width="120" height="60" as="geometry" />
        </mxCell>
        <mxCell id="ufzCT7gyZ99gmsHbjv4e-97" value="Private Key" style="edgeStyle=orthogonalEdgeStyle;rounded=0;orthogonalLoop=1;jettySize=auto;html=1;fontFamily=Lucida Console;" edge="1" parent="1" source="ufzCT7gyZ99gmsHbjv4e-94" target="ufzCT7gyZ99gmsHbjv4e-93">
          <mxGeometry relative="1" as="geometry" />
        </mxCell>
        <mxCell id="ufzCT7gyZ99gmsHbjv4e-94" value="DB" style="shape=cylinder3;whiteSpace=wrap;html=1;boundedLbl=1;backgroundOutline=1;size=15;fontFamily=Lucida Console;" vertex="1" parent="1">
          <mxGeometry x="2130" y="490" width="60" height="80" as="geometry" />
        </mxCell>
        <mxCell id="ufzCT7gyZ99gmsHbjv4e-107" value="Yes" style="edgeStyle=orthogonalEdgeStyle;rounded=0;orthogonalLoop=1;jettySize=auto;html=1;entryX=0.5;entryY=0;entryDx=0;entryDy=0;fontFamily=Lucida Console;" edge="1" parent="1" source="ufzCT7gyZ99gmsHbjv4e-98" target="ufzCT7gyZ99gmsHbjv4e-103">
          <mxGeometry relative="1" as="geometry" />
        </mxCell>
        <mxCell id="ufzCT7gyZ99gmsHbjv4e-98" value="Password matches" style="rounded=1;whiteSpace=wrap;html=1;fontFamily=Lucida Console;" vertex="1" parent="1">
          <mxGeometry x="2350" y="650" width="120" height="60" as="geometry" />
        </mxCell>
        <mxCell id="ufzCT7gyZ99gmsHbjv4e-101" value="Hashed password" style="edgeStyle=orthogonalEdgeStyle;rounded=0;orthogonalLoop=1;jettySize=auto;html=1;fontFamily=Lucida Console;" edge="1" parent="1" source="ufzCT7gyZ99gmsHbjv4e-100" target="ufzCT7gyZ99gmsHbjv4e-98">
          <mxGeometry relative="1" as="geometry" />
        </mxCell>
        <mxCell id="ufzCT7gyZ99gmsHbjv4e-104" value="Encrypted 2FA" style="edgeStyle=orthogonalEdgeStyle;rounded=0;orthogonalLoop=1;jettySize=auto;html=1;entryX=0;entryY=0.5;entryDx=0;entryDy=0;fontFamily=Lucida Console;" edge="1" parent="1" source="ufzCT7gyZ99gmsHbjv4e-100" target="ufzCT7gyZ99gmsHbjv4e-103">
          <mxGeometry x="0.3571" relative="1" as="geometry">
            <Array as="points">
              <mxPoint x="2160" y="810" />
            </Array>
            <mxPoint as="offset" />
          </mxGeometry>
        </mxCell>
        <mxCell id="ufzCT7gyZ99gmsHbjv4e-100" value="DB" style="shape=cylinder3;whiteSpace=wrap;html=1;boundedLbl=1;backgroundOutline=1;size=15;fontFamily=Lucida Console;" vertex="1" parent="1">
          <mxGeometry x="2130" y="640" width="60" height="80" as="geometry" />
        </mxCell>
        <mxCell id="ufzCT7gyZ99gmsHbjv4e-111" style="edgeStyle=orthogonalEdgeStyle;rounded=0;orthogonalLoop=1;jettySize=auto;html=1;entryX=0.5;entryY=0;entryDx=0;entryDy=0;fontFamily=Lucida Console;" edge="1" parent="1" source="ufzCT7gyZ99gmsHbjv4e-103" target="ufzCT7gyZ99gmsHbjv4e-108">
          <mxGeometry relative="1" as="geometry" />
        </mxCell>
        <mxCell id="ufzCT7gyZ99gmsHbjv4e-103" value="Decrypted 2FA" style="rounded=1;whiteSpace=wrap;html=1;fontFamily=Lucida Console;" vertex="1" parent="1">
          <mxGeometry x="2350" y="780" width="120" height="60" as="geometry" />
        </mxCell>
        <mxCell id="ufzCT7gyZ99gmsHbjv4e-114" style="edgeStyle=orthogonalEdgeStyle;rounded=0;orthogonalLoop=1;jettySize=auto;html=1;fontFamily=Lucida Console;" edge="1" parent="1" source="ufzCT7gyZ99gmsHbjv4e-108" target="ufzCT7gyZ99gmsHbjv4e-113">
          <mxGeometry relative="1" as="geometry" />
        </mxCell>
        <mxCell id="ufzCT7gyZ99gmsHbjv4e-108" value="Generate OTP" style="rounded=1;whiteSpace=wrap;html=1;fontFamily=Lucida Console;" vertex="1" parent="1">
          <mxGeometry x="2350" y="900" width="120" height="60" as="geometry" />
        </mxCell>
        <mxCell id="ufzCT7gyZ99gmsHbjv4e-112" style="edgeStyle=orthogonalEdgeStyle;rounded=0;orthogonalLoop=1;jettySize=auto;html=1;entryX=1;entryY=0.5;entryDx=0;entryDy=0;fontFamily=Lucida Console;" edge="1" parent="1" source="ufzCT7gyZ99gmsHbjv4e-109" target="ufzCT7gyZ99gmsHbjv4e-108">
          <mxGeometry relative="1" as="geometry">
            <Array as="points">
              <mxPoint x="2820" y="930" />
            </Array>
          </mxGeometry>
        </mxCell>
        <mxCell id="ufzCT7gyZ99gmsHbjv4e-109" value="Given OTP" style="rounded=1;whiteSpace=wrap;html=1;fontFamily=Lucida Console;" vertex="1" parent="1">
          <mxGeometry x="2760" y="390" width="120" height="60" as="geometry" />
        </mxCell>
        <mxCell id="ufzCT7gyZ99gmsHbjv4e-116" value="Store" style="edgeStyle=orthogonalEdgeStyle;rounded=0;orthogonalLoop=1;jettySize=auto;html=1;fontFamily=Lucida Console;" edge="1" parent="1" source="ufzCT7gyZ99gmsHbjv4e-113" target="ufzCT7gyZ99gmsHbjv4e-115">
          <mxGeometry relative="1" as="geometry" />
        </mxCell>
        <mxCell id="ufzCT7gyZ99gmsHbjv4e-113" value="Generate Access Tokens" style="rounded=1;whiteSpace=wrap;html=1;fontFamily=Lucida Console;" vertex="1" parent="1">
          <mxGeometry x="2350" y="1040" width="120" height="60" as="geometry" />
        </mxCell>
        <mxCell id="ufzCT7gyZ99gmsHbjv4e-115" value="DB" style="shape=cylinder3;whiteSpace=wrap;html=1;boundedLbl=1;backgroundOutline=1;size=15;fontFamily=Lucida Console;" vertex="1" parent="1">
          <mxGeometry x="2380" y="1190" width="60" height="80" as="geometry" />
        </mxCell>
        <mxCell id="ufzCT7gyZ99gmsHbjv4e-120" style="edgeStyle=orthogonalEdgeStyle;rounded=0;orthogonalLoop=1;jettySize=auto;html=1;entryX=0.5;entryY=0;entryDx=0;entryDy=0;fontFamily=Lucida Console;" edge="1" parent="1" source="ufzCT7gyZ99gmsHbjv4e-118" target="ufzCT7gyZ99gmsHbjv4e-119">
          <mxGeometry relative="1" as="geometry" />
        </mxCell>
        <mxCell id="ufzCT7gyZ99gmsHbjv4e-118" value="Password reset Request" style="rounded=1;whiteSpace=wrap;html=1;fontFamily=Lucida Console;" vertex="1" parent="1">
          <mxGeometry x="3000" y="250" width="170" height="80" as="geometry" />
        </mxCell>
        <mxCell id="ufzCT7gyZ99gmsHbjv4e-123" value="Lookup" style="edgeStyle=orthogonalEdgeStyle;rounded=0;orthogonalLoop=1;jettySize=auto;html=1;entryX=0.5;entryY=0;entryDx=0;entryDy=0;entryPerimeter=0;fontFamily=Lucida Console;" edge="1" parent="1" source="ufzCT7gyZ99gmsHbjv4e-119" target="ufzCT7gyZ99gmsHbjv4e-121">
          <mxGeometry relative="1" as="geometry" />
        </mxCell>
        <mxCell id="ufzCT7gyZ99gmsHbjv4e-119" value="E-Mail" style="rounded=1;whiteSpace=wrap;html=1;fontFamily=Lucida Console;" vertex="1" parent="1">
          <mxGeometry x="3025" y="410" width="120" height="60" as="geometry" />
        </mxCell>
        <mxCell id="ufzCT7gyZ99gmsHbjv4e-125" style="edgeStyle=orthogonalEdgeStyle;rounded=0;orthogonalLoop=1;jettySize=auto;html=1;fontFamily=Lucida Console;startArrow=none;" edge="1" parent="1" source="ufzCT7gyZ99gmsHbjv4e-138" target="ufzCT7gyZ99gmsHbjv4e-124">
          <mxGeometry relative="1" as="geometry" />
        </mxCell>
        <mxCell id="ufzCT7gyZ99gmsHbjv4e-121" value="DB" style="shape=cylinder3;whiteSpace=wrap;html=1;boundedLbl=1;backgroundOutline=1;size=15;fontFamily=Lucida Console;" vertex="1" parent="1">
          <mxGeometry x="3055" y="545" width="60" height="80" as="geometry" />
        </mxCell>
        <mxCell id="ufzCT7gyZ99gmsHbjv4e-124" value="&lt;div&gt;Send E-Mail with recovery link(base 64 encoded)&lt;br&gt;&lt;/div&gt;" style="rounded=1;whiteSpace=wrap;html=1;fontFamily=Lucida Console;" vertex="1" parent="1">
          <mxGeometry x="3002.5" y="810" width="165" height="100" as="geometry" />
        </mxCell>
        <mxCell id="ufzCT7gyZ99gmsHbjv4e-132" style="edgeStyle=orthogonalEdgeStyle;rounded=0;orthogonalLoop=1;jettySize=auto;html=1;entryX=0.5;entryY=0;entryDx=0;entryDy=0;fontFamily=Lucida Console;" edge="1" parent="1" source="ufzCT7gyZ99gmsHbjv4e-127" target="ufzCT7gyZ99gmsHbjv4e-128">
          <mxGeometry relative="1" as="geometry" />
        </mxCell>
        <mxCell id="ufzCT7gyZ99gmsHbjv4e-127" value="Password reset process " style="rounded=1;whiteSpace=wrap;html=1;fontFamily=Lucida Console;" vertex="1" parent="1">
          <mxGeometry x="3660" y="250" width="170" height="80" as="geometry" />
        </mxCell>
        <mxCell id="ufzCT7gyZ99gmsHbjv4e-136" style="edgeStyle=orthogonalEdgeStyle;rounded=0;orthogonalLoop=1;jettySize=auto;html=1;entryX=0.5;entryY=0;entryDx=0;entryDy=0;fontFamily=Lucida Console;" edge="1" parent="1" source="ufzCT7gyZ99gmsHbjv4e-128" target="ufzCT7gyZ99gmsHbjv4e-135">
          <mxGeometry relative="1" as="geometry" />
        </mxCell>
        <mxCell id="ufzCT7gyZ99gmsHbjv4e-137" style="edgeStyle=orthogonalEdgeStyle;rounded=0;orthogonalLoop=1;jettySize=auto;html=1;entryX=0.5;entryY=0;entryDx=0;entryDy=0;fontFamily=Lucida Console;" edge="1" parent="1" source="ufzCT7gyZ99gmsHbjv4e-128" target="ufzCT7gyZ99gmsHbjv4e-133">
          <mxGeometry relative="1" as="geometry">
            <Array as="points">
              <mxPoint x="3625" y="420" />
            </Array>
          </mxGeometry>
        </mxCell>
        <mxCell id="ufzCT7gyZ99gmsHbjv4e-128" value="Get info out of url" style="rounded=1;whiteSpace=wrap;html=1;fontFamily=Lucida Console;" vertex="1" parent="1">
          <mxGeometry x="3685" y="390" width="120" height="60" as="geometry" />
        </mxCell>
        <mxCell id="ufzCT7gyZ99gmsHbjv4e-144" value="Lookup" style="edgeStyle=orthogonalEdgeStyle;rounded=0;orthogonalLoop=1;jettySize=auto;html=1;entryX=0;entryY=0.5;entryDx=0;entryDy=0;entryPerimeter=0;fontFamily=Lucida Console;" edge="1" parent="1" source="ufzCT7gyZ99gmsHbjv4e-133" target="ufzCT7gyZ99gmsHbjv4e-142">
          <mxGeometry relative="1" as="geometry">
            <Array as="points">
              <mxPoint x="3625" y="670" />
            </Array>
          </mxGeometry>
        </mxCell>
        <mxCell id="ufzCT7gyZ99gmsHbjv4e-133" value="E-Mail" style="rounded=1;whiteSpace=wrap;html=1;fontFamily=Lucida Console;" vertex="1" parent="1">
          <mxGeometry x="3565" y="490" width="120" height="60" as="geometry" />
        </mxCell>
        <mxCell id="ufzCT7gyZ99gmsHbjv4e-143" value="Lookup" style="edgeStyle=orthogonalEdgeStyle;rounded=0;orthogonalLoop=1;jettySize=auto;html=1;fontFamily=Lucida Console;" edge="1" parent="1" source="ufzCT7gyZ99gmsHbjv4e-135" target="ufzCT7gyZ99gmsHbjv4e-142">
          <mxGeometry x="-0.1304" relative="1" as="geometry">
            <Array as="points">
              <mxPoint x="3870" y="670" />
            </Array>
            <mxPoint as="offset" />
          </mxGeometry>
        </mxCell>
        <mxCell id="ufzCT7gyZ99gmsHbjv4e-135" value="Restore Token" style="rounded=1;whiteSpace=wrap;html=1;fontFamily=Lucida Console;" vertex="1" parent="1">
          <mxGeometry x="3810" y="490" width="120" height="60" as="geometry" />
        </mxCell>
        <mxCell id="ufzCT7gyZ99gmsHbjv4e-141" value="Store" style="edgeStyle=orthogonalEdgeStyle;rounded=0;orthogonalLoop=1;jettySize=auto;html=1;fontFamily=Lucida Console;" edge="1" parent="1" source="ufzCT7gyZ99gmsHbjv4e-138" target="ufzCT7gyZ99gmsHbjv4e-140">
          <mxGeometry relative="1" as="geometry" />
        </mxCell>
        <mxCell id="ufzCT7gyZ99gmsHbjv4e-138" value="Generate Restore Token" style="rounded=1;whiteSpace=wrap;html=1;fontFamily=Lucida Console;" vertex="1" parent="1">
          <mxGeometry x="3025" y="690" width="120" height="60" as="geometry" />
        </mxCell>
        <mxCell id="ufzCT7gyZ99gmsHbjv4e-139" value="" style="edgeStyle=orthogonalEdgeStyle;rounded=0;orthogonalLoop=1;jettySize=auto;html=1;fontFamily=Lucida Console;endArrow=none;" edge="1" parent="1" source="ufzCT7gyZ99gmsHbjv4e-121" target="ufzCT7gyZ99gmsHbjv4e-138">
          <mxGeometry relative="1" as="geometry">
            <mxPoint x="3085" y="625" as="sourcePoint" />
            <mxPoint x="3085" y="750" as="targetPoint" />
          </mxGeometry>
        </mxCell>
        <mxCell id="ufzCT7gyZ99gmsHbjv4e-140" value="DB" style="shape=cylinder3;whiteSpace=wrap;html=1;boundedLbl=1;backgroundOutline=1;size=15;fontFamily=Lucida Console;" vertex="1" parent="1">
          <mxGeometry x="3260" y="680" width="60" height="80" as="geometry" />
        </mxCell>
        <mxCell id="ufzCT7gyZ99gmsHbjv4e-146" value="Valid" style="edgeStyle=orthogonalEdgeStyle;rounded=0;orthogonalLoop=1;jettySize=auto;html=1;fontFamily=Lucida Console;entryX=0.536;entryY=0.132;entryDx=0;entryDy=0;entryPerimeter=0;" edge="1" parent="1" source="ufzCT7gyZ99gmsHbjv4e-142" target="ufzCT7gyZ99gmsHbjv4e-149">
          <mxGeometry relative="1" as="geometry">
            <mxPoint x="3730" y="760" as="targetPoint" />
          </mxGeometry>
        </mxCell>
        <mxCell id="ufzCT7gyZ99gmsHbjv4e-142" value="DB" style="shape=cylinder3;whiteSpace=wrap;html=1;boundedLbl=1;backgroundOutline=1;size=15;fontFamily=Lucida Console;" vertex="1" parent="1">
          <mxGeometry x="3700" y="630" width="60" height="80" as="geometry" />
        </mxCell>
        <mxCell id="ufzCT7gyZ99gmsHbjv4e-149" value="&lt;div&gt;Regenerate &lt;br&gt;&lt;/div&gt;&lt;div&gt;User Info&lt;/div&gt;" style="ellipse;shape=cloud;whiteSpace=wrap;html=1;fontFamily=Lucida Console;" vertex="1" parent="1">
          <mxGeometry x="3633" y="760" width="180" height="120" as="geometry" />
        </mxCell>
      </root>
    </mxGraphModel>
  </diagram>
</mxfile>
